<?xml version="1.0" encoding="utf-8"?>
<!-- Generator: Adobe Illustrator 16.0.0, SVG Export Plug-In . SVG Version: 6.00 Build 0)  -->
<!DOCTYPE svg PUBLIC "-//W3C//DTD SVG 1.1//EN" "http://www.w3.org/Graphics/SVG/1.1/DTD/svg11.dtd">
<svg version="1.1" id="Layer_1" xmlns="http://www.w3.org/2000/svg" xmlns:xlink="http://www.w3.org/1999/xlink" x="0px" y="0px"
	 width="230px" height="300px" viewBox="0 0 230 300" enable-background="new 0 0 230 300" xml:space="preserve">
<g>
	<path fill="#FFFFFF" d="M128.013,64.287c-0.148,0.97-0.277,1.474-0.292,1.981
		c-0.032,1.091-0.008,2.183-0.002,3.274c0.021,3.604-1.203,6.84-2.916,9.938c-0.448,0.811-0.773,1.692-1.25,2.483
		c-1.923,3.187-3.816,6.395-5.845,9.515c-3.083,4.744-4.227,9.925-3.657,15.491c0.514,5.022,2.906,8.996,7.051,11.899
		c0.234,0.164,0.458,0.343,0.686,0.516c-0.055,0.12-0.109,0.239-0.165,0.358c-1.293-0.508-2.671-0.87-3.863-1.554
		c-3.507-2.012-6.797-4.428-9.2-7.664c-2.246-3.023-4.005-6.428-4.071-10.395c-0.032-1.932-0.216-3.881-0.031-5.793
		c0.308-3.179,0.962-6.292,2.548-9.151c0.778-1.402,1.365-2.913,2.016-4.384c0.848-1.916,1.629-3.863,2.521-5.758
		c1.178-2.501,2.323-4.977,1.03-7.797c-0.078-0.167-0.057-0.395-0.037-0.59c0.044-0.435,0.115-0.868,0.186-1.376
		c2.108-0.139,2.764,1.555,3.574,2.8c1.153,1.77,1.551,3.797,1.223,5.947c-0.064,0.425,0.264,0.91,0.467,1.542
		c2.689-3.947,2.341-8.045,1.625-12.073c-0.746-4.203-2.036-8.311-2.771-12.515c-0.805-4.591-1.14-9.289-0.164-13.878
		c0.557-2.62,0.906-5.413,2.857-7.61c1.178-1.327,2.057-2.917,3.131-4.343c0.194-0.258,0.682-0.296,1.218-0.508
		c-0.447,1.335-0.722,2.421-1.167,3.433c-1.771,4.025-1.047,8.11,0.039,12.039c1.014,3.671,2.469,7.246,4.668,10.451
		c1.404,2.046,2.745,4.144,3.988,6.291c2.434,4.204,5.389,8.097,7.231,12.66c1.397,3.46,2.032,6.931,1.457,10.634
		c-0.28,1.806-0.192,3.688-0.628,5.447c-0.522,2.109-1.432,4.122-2.152,6.184c-0.075,0.214-0.011,0.476-0.011,0.702
		c1.578-0.375,3.111-0.822,4.676-1.086c1.567-0.264,3.138-0.204,4.766,0.712c-1.396,1.049-2.682,1.829-3.721,2.857
		c-0.769,0.761-1.408,1.778-1.771,2.799c-1.206,3.4-1.984,6.978-3.442,10.258c-2.082,4.685-5.326,8.459-10.213,10.568
		c-1.713,0.739-2.289,0.503-3.097-1.174c-1.567-3.256-1.587-6.61-0.769-10.002c0.288-1.194,0.945-2.302,1.463-3.436
		c0.695-1.521,1.3-3.1,2.16-4.524c1.07-1.772,2.416-3.377,3.533-5.126c0.521-0.817,0.711-1.838,1.172-2.702
		c2.088-3.904,2.894-8.097,2.477-12.445c-0.315-3.299-1.386-6.417-3.261-9.241c-0.845-1.272-1.354-2.763-2.064-4.128
		C128.989,65.379,128.607,65.029,128.013,64.287z M115.018,114.679c-0.469-1.297-0.777-2.258-1.158-3.188
		c-2.192-5.35-1.923-10.779,0.318-15.902c1.752-4.006,4.328-7.652,6.534-11.46c0.553-0.954,1.105-1.908,1.637-2.875
		c2.159-3.929,4.214-7.895,4.198-12.553c-0.004-1.539-0.053-3.081,0.044-4.614c0.036-0.567,0.43-1.112,0.66-1.667
		c0.49,0.236,1.112,0.353,1.45,0.727c3.057,3.378,5.033,7.418,6.256,11.715c1.544,5.426,1.297,10.926-1.055,16.139
		c-1.227,2.722-2.606,5.419-4.271,7.888c-1.967,2.915-3.666,5.885-4.615,9.289c-0.826,2.959-0.646,5.797,0.539,8.619
		c0.378,0.901,0.771,1.073,1.672,0.624c5.758-2.872,8.977-7.69,10.657-13.716c1.053-3.778,1.455-7.853,4.829-10.576
		c0.165-0.133,0.228-0.394,0.405-0.718c-0.427,0.067-0.744,0.049-0.997,0.167c-1.788,0.834-3.555,1.716-5.351,2.532
		c-0.298,0.135-0.842,0.165-1.032-0.013c-0.264-0.245-0.486-0.788-0.396-1.109c0.314-1.112,0.76-2.188,1.178-3.27
		c0.33-0.856,0.849-1.67,1.013-2.554c0.517-2.782,0.821-5.604,1.365-8.381c0.675-3.445-0.248-6.619-1.628-9.645
		c-1.374-3.011-3.011-5.911-4.662-8.786c-1.723-2.999-3.68-5.862-5.388-8.869c-1.616-2.843-3.208-5.723-4.493-8.723
		c-0.947-2.212-2.016-4.439-1.891-7.03c0.096-1.974-0.234-3.968-0.375-5.953c-0.146-0.04-0.292-0.08-0.438-0.12
		c-0.796,2.536-1.864,5.022-2.322,7.617c-0.706,4.005-0.45,8.094,0.271,12.083c0.895,4.947,2.247,9.814,3.061,14.772
		c0.588,3.58,0.685,7.286-1.511,10.511c-0.411,0.603-1.327,0.93-2.077,1.188c-0.205,0.07-0.83-0.521-0.953-0.907
		c-0.205-0.638-0.095-1.37-0.229-2.04c-0.35-1.745-0.748-3.48-1.17-5.209c-0.026-0.107-0.425-0.123-0.764-0.21
		c0.252,4.07-1.438,7.508-3.09,10.95c-0.803,1.669-1.811,3.252-2.485,4.968c-0.978,2.487-1.858,5.026-2.563,7.603
		c-1.064,3.89-0.882,7.905,0.306,11.658C107.909,108.105,110.76,111.745,115.018,114.679z"/>
	<path fill-rule="evenodd" clip-rule="evenodd" fill="none" d="M107.763,192.135c-1.535-7.584-3.031-14.979-4.559-22.526
		c12.832,0,25.499,0,38.285,0c-1.541,7.524-3.061,14.938-4.575,22.33c3.399,0.807,6.69,1.443,9.891,2.391
		c3.113,0.921,6.075,2.243,8.704,4.256c1.979,1.515,2.852,3.404,2.84,5.875c-0.045,8.985-0.21,17.977,0.059,26.955
		c0.13,4.317-1.878,6.676-5.361,8.5c-6.078,3.182-12.634,4.524-19.366,5.012c-5.525,0.4-11.092,0.735-16.619,0.525
		c-7.816-0.297-15.601-1.266-22.869-4.458c-2.006-0.881-3.851-2.204-5.618-3.526c-1.403-1.049-1.953-2.632-1.947-4.442
		c0.033-9.283,0.12-18.569-0.04-27.851c-0.06-3.468,1.438-5.762,4.164-7.481c4.108-2.593,8.658-4.016,13.405-4.878
		C105.319,192.604,106.479,192.378,107.763,192.135z M104.755,170.815c0.066,0.558,0.088,1.001,0.176,1.432
		c1.311,6.407,2.637,12.812,3.942,19.22c0.216,1.06-0.27,1.717-1.326,1.924c-1.595,0.312-3.201,0.568-4.789,0.912
		c-4.477,0.971-8.771,2.406-12.473,5.22c-1.666,1.266-2.521,2.88-2.503,5.094c0.076,9.434,0.052,18.869,0.013,28.304
		c-0.006,1.568,0.471,2.892,1.698,3.758c1.766,1.246,3.563,2.544,5.531,3.395c6.991,3.023,14.481,3.839,21.968,4.222
		c7.258,0.371,14.537,0.159,21.737-1.126c4.975-0.89,9.873-2.026,14.307-4.578c2.456-1.413,4.24-3.134,4.177-6.419
		c-0.17-8.786-0.257-17.582,0.001-26.363c0.118-4.027-1.704-6.222-4.952-7.939c-4.659-2.463-9.675-3.644-14.81-4.452
		c-1.235-0.194-1.835-0.813-1.62-1.984c0.604-3.287,1.283-6.561,1.957-9.834c0.732-3.56,1.493-7.112,2.266-10.782
		C128.252,170.815,116.604,170.815,104.755,170.815z"/>
	<path fill="#FFFFFF" d="M158.062,148.394c-2.889,3.466-5.51,6.624-8.146,9.769
		c-2.101,2.506-4.187,5.026-6.359,7.47c-0.425,0.479-1.212,0.897-1.834,0.9c-12.762,0.052-25.524,0.046-38.286,0.017
		c-0.475-0.002-1.133-0.212-1.395-0.559c-4.34-5.775-8.632-11.589-12.926-17.399c-0.079-0.106-0.066-0.279-0.155-0.706
		C111.973,141.284,134.867,141.139,158.062,148.394z M90.716,148.586c0.204,0.371,0.261,0.509,0.348,0.627
		c3.752,5.105,7.481,10.226,11.3,15.281c0.386,0.511,1.311,0.865,1.986,0.868c12.112,0.052,24.225,0.021,36.336,0.065
		c1.152,0.004,1.899-0.344,2.617-1.223c2.755-3.375,5.582-6.691,8.379-10.033c1.389-1.659,2.771-3.325,4.321-5.188
		C134.168,142.523,112.564,142.669,90.716,148.586z"/>
	<path fill="#FFFFFF" d="M101.787,124.908c5.406,0,10.565,0,15.723,0
		c8.64,0.001,17.279,0.023,25.918-0.018c1.175-0.005,1.646,0.234,1.624,1.536c-0.077,4.715-0.028,9.433-0.033,14.149
		c-0.001,0.388-0.051,0.775-0.059,0.895c-7.249-0.555-14.421-1.518-21.596-1.537c-7.146-0.02-14.294,0.908-21.578,1.43
		C101.787,136.093,101.787,130.586,101.787,124.908z M143.734,140.53c0-5.002,0-9.686,0-14.361c-13.62,0-27.132,0-40.768,0
		c0,4.777,0,9.454,0,14.273C116.613,138.091,130.15,138.1,143.734,140.53z"/>
	<path fill="#FFFFFF" d="M118.477,267.48c0-1.877,0-3.754,0-5.741c1.164,0,2.271,0,3.49,0
		c0,4.317,0,8.604,0,13.388c-0.947-0.507-1.766-0.763-2.342-1.285c-1.707-1.55-3.32-3.205-5.234-5.078c0,2.175,0,3.975,0,5.876
		c-1.307,0-2.467,0-3.799,0c0-2.568-0.003-5.138,0-7.707c0.002-1.34-0.02-2.682,0.042-4.021c0.02-0.428,0.227-1.172,0.428-1.2
		c0.467-0.065,1.115,0.074,1.453,0.387c1.563,1.442,3.066,2.95,4.537,4.486c0.365,0.38,0.532,0.952,0.789,1.437
		C118.054,267.841,118.265,267.66,118.477,267.48z M120.818,263.058c-0.127-0.123-0.254-0.245-0.381-0.368
		c-0.257,0.334-0.703,0.65-0.736,1.006c-0.102,1.08,0.059,2.188-0.086,3.259c-0.088,0.645-0.407,1.494-0.896,1.772
		c-0.362,0.207-1.192-0.305-1.761-0.598c-0.332-0.172-0.568-0.537-0.834-0.829c-1.25-1.373-2.494-2.75-3.741-4.126
		c-0.155,0.116-0.312,0.232-0.467,0.349c0,3.316,0,6.632,0,10.024c0.425-0.026,0.796-0.05,1.235-0.076
		c0-1.418-0.055-2.756,0.029-4.084c0.03-0.476,0.287-1.178,0.637-1.331c0.44-0.192,1.149-0.064,1.617,0.173
		c0.553,0.28,1.004,0.793,1.441,1.26c1.202,1.283,2.374,2.596,3.558,3.896c0.128-0.103,0.256-0.206,0.384-0.308
		C120.818,269.736,120.818,266.397,120.818,263.058z"/>
	<path fill="#FFFFFF" d="M159.362,270.564c1.191,0.226,2.518-0.64,3.341,0.951
		c0.102,0.196,1.517,0.053,1.95-0.343c0.662-0.604,0.292-1.488-0.493-1.782c-0.755-0.283-1.631-0.271-2.458-0.326
		c-0.729-0.049-1.462-0.011-2.281-0.011c0-2.466,0-4.821,0-7.299c2.696,0,5.386,0,8.161,0c0,0.903,0,1.816,0,2.919
		c-1.352,0-2.676-0.055-3.99,0.031c-0.424,0.028-0.823,0.428-1.235,0.657c0.414,0.225,0.828,0.642,1.241,0.643
		c4.42,0.003,5.394,3.646,4.329,6.39c-0.753,1.94-3.082,3.087-5.277,2.597C160.904,274.601,159.019,273.15,159.362,270.564z
		 M160.57,267.903c1.087,0,2.032-0.077,2.959,0.018c1.364,0.141,2.461,0.922,2.494,2.288c0.021,0.827-0.539,1.966-1.21,2.442
		c-1.002,0.712-2.253,0.548-3.225-0.453c-0.21-0.217-0.542-0.315-1.036-0.588c0.722,2.229,2.805,2.506,4.135,2.133
		c1.772-0.498,2.64-2.005,2.392-4.066c-0.178-1.476-1.342-2.333-3.223-2.418c-0.533-0.024-1.205,0.022-1.56-0.271
		c-0.508-0.42-1.091-1.133-1.07-1.7c0.02-0.565,0.638-1.295,1.189-1.604c0.547-0.306,1.337-0.18,2.021-0.233
		c0.67-0.054,1.342-0.095,2.012-0.141c-0.012-0.125-0.023-0.25-0.034-0.374c-1.93,0-3.858,0-5.845,0
		C160.57,264.569,160.57,266.139,160.57,267.903z"/>
	<path fill="#FFFFFF" d="M102.763,269.673c0,0.715,0,1.282,0,1.994c1.589,0,3.103,0,4.722,0
		c0,1.053,0,1.964,0,3.07c-1.382,0-2.747,0-4.111,0c-1.378,0-2.756,0-4.211,0c0-4.377,0-8.621,0-12.987c2.712,0,5.405,0,8.088,0
		c0.068,0.099,0.165,0.174,0.171,0.256c0.237,2.896,0.236,2.896-2.566,2.894c-0.684,0-1.368,0-2.115,0c0,0.524,0,0.904,0,1.323
		c0.103,0.046,0.23,0.149,0.361,0.154c0.693,0.023,1.388,0.027,2.082,0.027c1.783-0.001,2.536,1.111,1.815,2.793
		c-0.105,0.246-0.605,0.438-0.933,0.455C104.991,269.708,103.909,269.673,102.763,269.673z M100.386,273.344
		c2.037,0,3.968,0,5.899,0c-0.005-0.138-0.01-0.275-0.015-0.412c-0.772,0-1.544,0.006-2.317-0.001
		c-1.943-0.019-2.444-0.493-2.431-2.291c0.014-1.796,0.392-2.142,2.348-2.148c0.347-0.001,0.71,0.063,1.037-0.019
		c0.316-0.079,0.595-0.308,0.89-0.471c-0.319-0.139-0.628-0.363-0.957-0.397c-0.638-0.066-1.292,0.021-1.931-0.039
		c-1.339-0.127-1.448-1.066-1.417-2.156c0.03-1.058,0.362-1.717,1.546-1.689c1.069,0.024,2.14,0.005,3.21,0.005
		c0.012-0.217,0.025-0.434,0.037-0.649c-1.894-0.557-3.879-0.128-5.899-0.244C100.386,266.43,100.386,269.884,100.386,273.344z"/>
	<path fill="#FFFFFF" d="M97.025,274.742c-1.447,0-2.533,0.041-3.611-0.025
		c-0.311-0.019-0.696-0.28-0.885-0.546c-0.457-0.642-0.872-1.327-1.206-2.041c-0.465-0.994-1.148-1.26-2.244-0.823
		c0,1.06,0,2.139,0,3.325c-1.21,0-2.315,0-3.497,0c0-4.277,0-8.521,0-12.894c2.387,0,4.742-0.295,6.991,0.069
		c3.339,0.541,4.68,4.535,2.693,7.37c-0.251,0.358-0.568,0.672-0.868,1.023C95.221,271.623,96.03,273.021,97.025,274.742z
		 M94.812,273.424c-0.117-0.256-0.194-0.546-0.36-0.77c-1.113-1.493-1.573-2.748-0.063-4.516c1.598-1.869,0.188-5.008-2.177-5.265
		c-1.79-0.195-3.617-0.039-5.542-0.039c0,3.44-0.021,6.697,0.034,9.953c0.005,0.302,0.489,0.596,0.75,0.893
		c0.134-0.091,0.268-0.183,0.402-0.273c0-0.484-0.002-0.97,0-1.453c0.007-1.463,0.51-1.878,1.917-2.029
		c1.853-0.199,2.316,1.193,2.97,2.373C93.199,273.118,93.597,273.914,94.812,273.424z"/>
	<path fill="#FFFFFF" d="M137.273,274.739c-1.016,0-1.904,0.01-2.793-0.007
		c-0.235-0.004-0.641-0.033-0.678-0.146c-0.654-1.986-2.309-1.246-3.623-1.322c-1.031-0.06-2.066-0.26-2.711,1.128
		c-0.199,0.428-1.705,0.26-2.613,0.34c-0.291,0.025-0.588-0.028-1.057-0.057c0.373-0.88,0.696-1.683,1.053-2.472
		c1.485-3.278,2.955-6.564,4.502-9.813c0.207-0.436,0.781-0.799,1.264-0.957c0.239-0.078,0.82,0.309,0.967,0.618
		c1.898,4.004,3.748,8.032,5.604,12.058C137.244,274.232,137.229,274.39,137.273,274.739z M135.402,273.694
		c0.053-0.134,0.104-0.269,0.156-0.403c-1.632-3.516-3.264-7.031-4.999-10.771c-1.714,3.78-3.317,7.321-4.922,10.863
		C128.963,271.312,132.186,271.211,135.402,273.694z"/>
	<path fill="#FFFFFF" d="M70.028,274.739c0.781-1.704,1.428-3.13,2.086-4.55
		c1.223-2.64,2.427-5.29,3.705-7.902c0.195-0.398,0.723-0.817,1.139-0.866c0.342-0.041,0.928,0.367,1.096,0.724
		c1.879,3.968,3.699,7.964,5.525,11.957c0.055,0.12,0.007,0.287,0.007,0.639c-0.964,0-1.929,0.007-2.893-0.006
		c-0.188-0.002-0.513-0.036-0.542-0.128c-0.624-2.008-2.286-1.271-3.603-1.348c-1.091-0.063-2.297-0.32-2.804,1.21
		c-0.076,0.228-0.958,0.227-1.473,0.26C71.634,274.771,70.991,274.739,70.028,274.739z M81.714,273.713
		c0.066-0.113,0.132-0.227,0.198-0.341c-1.626-3.547-3.252-7.093-4.955-10.808c-1.733,3.736-3.368,7.262-5.003,10.787
		C75.292,271.381,78.516,271.182,81.714,273.713z"/>
	<path fill="#FFFFFF" d="M155.551,261.708c0,3.387,0,6.687,0,10.008
		c0.74,0.119,1.313,0.213,1.951,0.316c0,0.886,0,1.709,0,2.621c-2.418,0-4.82,0-7.215,0c-0.387-2.663-0.387-2.663,1.787-2.9
		c0-2.328,0-4.67,0-7.085c-0.511-0.041-0.99-0.081-1.575-0.129c0-0.934,0-1.841,0-2.831
		C152.119,261.708,153.689,261.708,155.551,261.708z M156.195,273.448c-1.81-0.497-1.913-1.848-1.876-3.374
		c0.059-2.397,0.016-4.798,0.016-7.088c-1.076,0-1.897,0-2.718,0c1.653,0.49,1.843,1.65,1.763,3.053
		c-0.074,1.282-0.018,2.572-0.016,3.859c0.003,1.504,0.367,3.208-1.919,3.55C153.028,273.448,154.612,273.448,156.195,273.448z"/>
	<path fill="#FFFFFF" d="M146.498,263.523c1.394,0.355,2.102,1.021,2.113,2.328
		c0.01,1.155-0.599,1.868-1.735,2.018c-1.295,0.169-2.183-0.392-2.605-1.658c-0.717-2.145,0.378-4.425,2.491-4.902
		c0.514-0.116,1.15,0.315,1.731,0.495c-0.334,0.418-0.628,0.879-1.017,1.237C147.221,263.278,146.829,263.368,146.498,263.523z
		 M145.547,264.474c-0.171,0.154-0.343,0.31-0.514,0.464c0.438,0.58,0.84,1.196,1.351,1.702c0.078,0.077,0.924-0.309,0.964-0.554
		C147.595,264.555,145.77,265.521,145.547,264.474z"/>
	<path fill="#FFFFFF" d="M115.018,114.679c-4.258-2.934-7.109-6.574-8.521-11.038
		c-1.188-3.753-1.371-7.768-0.306-11.658c0.705-2.576,1.585-5.116,2.563-7.603c0.674-1.716,1.683-3.298,2.485-4.968
		c1.652-3.442,3.342-6.88,3.09-10.95c0.339,0.087,0.737,0.103,0.764,0.21c0.422,1.729,0.82,3.464,1.17,5.209
		c0.134,0.67,0.023,1.401,0.229,2.04c0.123,0.386,0.748,0.977,0.953,0.907c0.75-0.258,1.666-0.585,2.077-1.188
		c2.195-3.225,2.099-6.931,1.511-10.511c-0.813-4.958-2.166-9.825-3.061-14.772c-0.721-3.989-0.977-8.078-0.271-12.083
		c0.458-2.595,1.526-5.082,2.322-7.617c0.146,0.04,0.292,0.08,0.438,0.12c0.141,1.985,0.471,3.979,0.375,5.953
		c-0.125,2.591,0.943,4.818,1.891,7.03c1.285,3,2.877,5.879,4.493,8.723c1.708,3.006,3.665,5.87,5.388,8.869
		c1.651,2.875,3.288,5.774,4.662,8.786c1.38,3.026,2.303,6.2,1.628,9.645c-0.544,2.776-0.849,5.599-1.365,8.381
		c-0.164,0.883-0.683,1.698-1.013,2.554c-0.418,1.082-0.863,2.158-1.178,3.27c-0.09,0.322,0.133,0.865,0.396,1.109
		c0.19,0.178,0.734,0.148,1.032,0.013c1.796-0.815,3.563-1.697,5.351-2.532c0.253-0.118,0.57-0.1,0.997-0.167
		c-0.178,0.324-0.24,0.584-0.405,0.718c-3.374,2.724-3.776,6.798-4.829,10.576c-1.681,6.026-4.899,10.845-10.657,13.716
		c-0.9,0.449-1.294,0.277-1.672-0.624c-1.186-2.822-1.365-5.66-0.539-8.619c0.949-3.403,2.648-6.374,4.615-9.289
		c1.665-2.469,3.045-5.166,4.271-7.888c2.352-5.213,2.599-10.713,1.055-16.139c-1.223-4.297-3.199-8.337-6.256-11.715
		c-0.338-0.374-0.96-0.491-1.45-0.727c-0.23,0.555-0.624,1.1-0.66,1.667c-0.097,1.533-0.048,3.075-0.044,4.614
		c0.016,4.658-2.039,8.624-4.198,12.553c-0.531,0.966-1.084,1.92-1.637,2.875c-2.206,3.808-4.782,7.454-6.534,11.46
		c-2.241,5.124-2.511,10.552-0.318,15.902C114.24,112.421,114.549,113.382,115.018,114.679z"/>
	<path fill="#FFFFFF" d="M104.755,170.815c11.848,0,23.497,0,35.299,0
		c-0.772,3.67-1.533,7.223-2.266,10.782c-0.674,3.273-1.354,6.547-1.957,9.834c-0.215,1.172,0.385,1.79,1.62,1.984
		c5.135,0.809,10.15,1.989,14.81,4.452c3.248,1.718,5.07,3.912,4.952,7.939c-0.258,8.781-0.171,17.577-0.001,26.363
		c0.063,3.285-1.721,5.006-4.177,6.419c-4.434,2.552-9.332,3.688-14.307,4.578c-7.2,1.285-14.479,1.497-21.737,1.126
		c-7.486-0.383-14.977-1.198-21.968-4.222c-1.967-0.851-3.765-2.148-5.531-3.395c-1.228-0.866-1.705-2.189-1.698-3.758
		c0.039-9.435,0.063-18.87-0.013-28.304c-0.018-2.214,0.837-3.828,2.503-5.094c3.703-2.813,7.997-4.249,12.473-5.22
		c1.588-0.344,3.194-0.601,4.789-0.912c1.057-0.207,1.542-0.864,1.326-1.924c-1.306-6.408-2.631-12.813-3.942-19.22
		C104.843,171.816,104.822,171.373,104.755,170.815z M123.885,210.415c3.458-0.323,8.444-0.605,13.373-1.3
		c4.781-0.674,9.502-1.808,13.806-4.141c0.755-0.409,1.658-1.217,1.756-1.938c0.07-0.528-0.965-1.414-1.688-1.805
		c-4.441-2.395-9.298-3.487-14.236-4.224c-1.811-0.271-2.199,0.219-2.619,1.984c-0.188,0.791-0.598,1.771-1.224,2.18
		c-6.357,4.137-12.991,4.751-19.968,1.503c-1.632-0.76-2.456-1.722-2.657-3.484c-0.23-2.021-1.089-2.537-3.061-2.137
		c-1.348,0.273-2.743,0.412-4.034,0.853c-3.396,1.158-6.794,2.335-10.095,3.732c-1.575,0.667-1.533,2.031-0.048,2.903
		c1.272,0.748,2.615,1.42,4,1.925C105.318,209.426,113.816,210.057,123.885,210.415z M126.807,224.679
		c0.002,0.016,0.004,0.031,0.005,0.047c1.574-0.117,3.148-0.225,4.722-0.355c0.99-0.083,1.518-0.655,1.559-1.641
		c0.029-0.692-0.003-1.387,0.014-2.08c0.033-1.378-0.628-2.005-2.001-1.916c-1.676,0.107-3.351,0.247-5.028,0.287
		c-2.336,0.055-2.781,0.459-2.788,2.76c-0.009,2.804,0.107,2.919,2.925,2.898C126.411,224.678,126.609,224.679,126.807,224.679z
		 M117.275,236.403c4.212-0.102,4.27,0.588,4.215-3.537c-0.021-1.622-0.529-2.134-2.24-2.205c-1.875-0.078-3.752-0.223-5.623-0.17
		c-0.556,0.016-1.494,0.523-1.568,0.931c-0.207,1.145-0.165,2.372,0.013,3.531c0.063,0.41,0.759,0.937,1.237,1.028
		C114.61,236.231,115.951,236.276,117.275,236.403z M127.541,236.303c0.002,0.025,0.004,0.051,0.006,0.077
		c1.327-0.1,2.675-0.094,3.973-0.346c0.564-0.109,1.32-0.653,1.483-1.162c0.953-2.969-0.079-4.313-3.067-4.229
		c-1.086,0.03-2.175-0.015-3.261,0.025c-0.685,0.025-1.42,0.014-2.032,0.264c-0.51,0.207-1.121,0.701-1.261,1.19
		c-0.88,3.065,0.019,4.215,3.121,4.18C126.849,236.299,127.194,236.303,127.541,236.303z M134.902,221.023
		c0,2.292,0.463,2.974,2.012,2.728c2.031-0.323,4.039-0.786,6.064-1.148c1.18-0.212,1.291-1.141,1.325-2.008
		c0.049-1.232,0.499-2.643-0.849-3.509c-0.307-0.197-0.858-0.087-1.283-0.019c-1.495,0.239-2.979,0.558-4.477,0.779
		C135.172,218.221,134.902,218.501,134.902,221.023z M100.643,231.538c-0.005,2.241,0.184,2.713,1.433,2.94
		c2.034,0.372,4.089,0.623,6.125,0.988c1.223,0.221,1.797-0.357,1.92-1.446c0.093-0.832,0.207-1.747-0.045-2.506
		c-0.215-0.649-0.852-1.475-1.452-1.623c-2.091-0.521-4.245-0.795-6.379-1.135c-0.978-0.156-1.465,0.403-1.589,1.295
		C100.587,230.538,100.643,231.042,100.643,231.538z M117.993,224.717c3.523,0.004,3.523,0.004,3.496-3.533
		c-0.001-0.099-0.003-0.198,0.001-0.297c0.063-1.332-0.625-1.87-1.9-1.859c-1.235,0.011-2.487,0.089-3.704-0.074
		c-3.795-0.508-4.11-0.256-3.937,3.579c0.004,0.099,0.006,0.198,0.009,0.297c0.024,0.956,0.569,1.451,1.468,1.537
		C114.945,224.512,116.471,224.604,117.993,224.717z M144.378,231.548c-0.015-2.752-0.419-3.055-3.18-2.448
		c-1.008,0.221-2.029,0.38-3.042,0.584c-3.349,0.676-3.313,0.679-3.271,4.057c0.017,1.303,0.613,1.849,1.824,1.712
		c1.761-0.198,3.525-0.416,5.266-0.747C144.119,234.298,144.392,233.87,144.378,231.548z M100.64,219.765
		c0.027,1.106-0.309,2.424,1.241,2.794c1.577,0.376,3.172,0.714,4.78,0.913c3.392,0.422,3.694,0.078,3.5-3.382
		c-0.062-1.09-0.528-1.74-1.632-1.946c-1.98-0.37-3.949-0.798-5.93-1.164c-1.195-0.221-1.876,0.359-1.955,1.596
		C100.619,218.971,100.64,219.369,100.64,219.765z M90.792,227.941c-0.013,2.633,0.035,2.75,2.387,3.754
		c1.22,0.521,2.478,0.961,3.734,1.395c1.099,0.379,1.851-0.11,1.915-1.251c0.05-0.887,0.167-1.817-0.04-2.656
		c-0.161-0.65-0.653-1.401-1.218-1.731c-1.222-0.716-2.62-1.125-3.883-1.779c-2.291-1.185-2.905-0.856-2.895,1.677
		C90.793,227.546,90.792,227.744,90.792,227.941z M154.223,228.257c0-0.488-0.002-0.686,0-0.884c0.015-2.263-0.794-2.748-2.777-1.74
		c-1.228,0.623-2.475,1.239-3.773,1.677c-1.106,0.372-1.618,1.021-1.638,2.136c-0.013,0.775-0.06,1.554-0.021,2.327
		c0.057,1.133,0.98,1.733,2.05,1.336c1.244-0.463,2.445-1.058,3.711-1.443C153.66,231.09,154.631,230.011,154.223,228.257z
		 M154.211,216.404c0-0.297,0.001-0.594,0-0.891c-0.006-2.031-0.82-2.514-2.681-1.648c-1.387,0.645-2.843,1.149-4.189,1.865
		c-0.522,0.276-1.061,0.913-1.179,1.473c-0.189,0.89-0.099,1.858-0.005,2.782c0.12,1.192,0.879,1.611,1.989,1.254
		c1.22-0.393,2.417-0.857,3.615-1.314C154.193,218.996,154.222,218.945,154.211,216.404z M98.835,218.475
		c-0.039-0.986,0.297-2.221-1.112-2.823c-1.633-0.698-3.244-1.448-4.878-2.145c-1.217-0.52-2,0.023-2.04,1.392
		c-0.025,0.844-0.174,1.73,0.032,2.52c0.184,0.708,0.63,1.594,1.221,1.9c1.525,0.792,3.182,1.344,4.811,1.919
		c1.057,0.373,1.841-0.184,1.958-1.306C98.874,219.489,98.835,219.039,98.835,218.475z"/>
	<path fill="#FFFFFF" d="M90.716,148.586c21.849-5.917,43.452-6.063,65.287,0.398
		c-1.551,1.862-2.933,3.528-4.321,5.188c-2.797,3.342-5.624,6.658-8.379,10.033c-0.718,0.879-1.465,1.227-2.617,1.223
		c-12.111-0.045-24.224-0.014-36.336-0.065c-0.676-0.003-1.601-0.357-1.986-0.868c-3.818-5.055-7.548-10.176-11.3-15.281
		C90.977,149.096,90.919,148.957,90.716,148.586z"/>
	<path fill="#FFFFFF" d="M143.734,140.53c-13.584-2.43-27.121-2.439-40.768-0.087
		c0-4.82,0-9.496,0-14.273c13.636,0,27.148,0,40.768,0C143.734,130.844,143.734,135.528,143.734,140.53z"/>
	<path fill="#FFFFFF" d="M120.818,263.058c0,3.34,0,6.679,0,10.02
		c-0.128,0.102-0.256,0.205-0.384,0.308c-1.184-1.301-2.355-2.613-3.558-3.896c-0.438-0.467-0.889-0.979-1.441-1.26
		c-0.468-0.237-1.177-0.365-1.617-0.173c-0.35,0.153-0.606,0.855-0.637,1.331c-0.084,1.328-0.029,2.666-0.029,4.084
		c-0.439,0.026-0.811,0.05-1.235,0.076c0-3.393,0-6.708,0-10.024c0.155-0.116,0.312-0.232,0.467-0.349
		c1.247,1.376,2.491,2.753,3.741,4.126c0.266,0.292,0.502,0.657,0.834,0.829c0.568,0.293,1.398,0.805,1.761,0.598
		c0.488-0.278,0.808-1.128,0.896-1.772c0.145-1.07-0.016-2.179,0.086-3.259c0.033-0.355,0.479-0.672,0.736-1.006
		C120.564,262.813,120.691,262.935,120.818,263.058z"/>
	<path fill="#FFFFFF" d="M160.57,267.903c0-1.765,0-3.334,0-4.967c1.986,0,3.915,0,5.845,0
		c0.011,0.124,0.022,0.249,0.034,0.374c-0.67,0.046-1.342,0.087-2.012,0.141c-0.685,0.054-1.475-0.072-2.021,0.233
		c-0.552,0.309-1.17,1.038-1.189,1.604c-0.021,0.567,0.563,1.28,1.07,1.7c0.354,0.293,1.026,0.246,1.56,0.271
		c1.881,0.085,3.045,0.942,3.223,2.418c0.248,2.062-0.619,3.568-2.392,4.066c-1.33,0.373-3.413,0.097-4.135-2.133
		c0.494,0.272,0.826,0.371,1.036,0.588c0.972,1.001,2.223,1.165,3.225,0.453c0.671-0.477,1.23-1.615,1.21-2.442
		c-0.033-1.366-1.13-2.147-2.494-2.288C162.603,267.826,161.657,267.903,160.57,267.903z"/>
	<path fill="#FFFFFF" d="M100.386,273.344c0-3.46,0-6.914,0-10.513
		c2.02,0.116,4.005-0.313,5.899,0.244c-0.012,0.216-0.025,0.433-0.037,0.649c-1.07,0-2.141,0.02-3.21-0.005
		c-1.185-0.027-1.516,0.632-1.546,1.689c-0.031,1.09,0.078,2.029,1.417,2.156c0.639,0.061,1.293-0.027,1.931,0.039
		c0.329,0.034,0.638,0.259,0.957,0.397c-0.295,0.163-0.574,0.392-0.89,0.471c-0.327,0.082-0.69,0.018-1.037,0.019
		c-1.957,0.007-2.334,0.353-2.348,2.148c-0.013,1.798,0.488,2.272,2.431,2.291c0.772,0.007,1.544,0.001,2.317,0.001
		c0.005,0.137,0.01,0.274,0.015,0.412C104.354,273.344,102.423,273.344,100.386,273.344z"/>
	<path fill="#FFFFFF" d="M94.812,273.424c-1.215,0.49-1.613-0.306-2.067-1.126
		c-0.654-1.18-1.118-2.572-2.97-2.373c-1.408,0.151-1.91,0.566-1.917,2.029c-0.003,0.483,0,0.969,0,1.453
		c-0.134,0.091-0.268,0.183-0.402,0.273c-0.261-0.297-0.745-0.591-0.75-0.893c-0.055-3.256-0.034-6.513-0.034-9.953
		c1.925,0,3.752-0.156,5.542,0.039c2.365,0.257,3.774,3.396,2.177,5.265c-1.51,1.768-1.05,3.022,0.063,4.516
		C94.618,272.878,94.695,273.168,94.812,273.424z M90.36,263.414c-0.756,0.396-1.996,0.648-2.166,1.22
		c-0.342,1.147-0.435,2.619,0.034,3.658c0.259,0.574,1.892,0.81,2.851,0.703c0.837-0.094,1.892-0.694,2.333-1.396
		C94.478,265.903,93.369,263.268,90.36,263.414z"/>
	<path fill="#FFFFFF" d="M135.402,273.694c-3.217-2.483-6.439-2.383-9.765-0.311
		c1.604-3.542,3.208-7.083,4.922-10.863c1.735,3.739,3.367,7.255,4.999,10.771C135.506,273.426,135.455,273.561,135.402,273.694z
		 M130.771,271.396c2.08,0.034,2.58-0.671,1.834-2.589c-0.07-0.184-0.117-0.394-0.236-0.541c-0.588-0.725-1.197-1.433-1.799-2.146
		c-0.588,0.723-1.348,1.364-1.731,2.183C127.75,270.625,128.254,271.354,130.771,271.396z"/>
	<path fill="#FFFFFF" d="M81.714,273.713c-3.199-2.531-6.422-2.332-9.759-0.361
		c1.635-3.525,3.27-7.051,5.003-10.787c1.703,3.715,3.329,7.261,4.955,10.808C81.847,273.486,81.78,273.6,81.714,273.713z
		 M76.931,271.399c2.177-0.03,2.729-0.876,1.837-2.891c-0.419-0.947-0.583-2.507-1.869-2.255c-0.753,0.148-1.434,1.461-1.847,2.384
		C74.126,270.707,74.677,271.431,76.931,271.399z"/>
	<path fill="#FFFFFF" d="M156.195,273.448c-1.583,0-3.167,0-4.75,0
		c2.286-0.342,1.922-2.046,1.919-3.55c-0.002-1.287-0.059-2.577,0.016-3.859c0.08-1.402-0.109-2.563-1.763-3.053
		c0.82,0,1.642,0,2.718,0c0,2.29,0.043,4.69-0.016,7.088C154.282,271.601,154.386,272.951,156.195,273.448z"/>
	<path fill="#FFFFFF" d="M145.547,264.474c0.223,1.048,2.048,0.081,1.801,1.612
		c-0.04,0.245-0.886,0.631-0.964,0.554c-0.511-0.506-0.913-1.122-1.351-1.702C145.204,264.783,145.376,264.628,145.547,264.474z"/>
	<path fill="#FFFFFF" d="M123.885,210.415c-10.068-0.358-18.566-0.989-26.695-3.948
		c-1.385-0.505-2.728-1.177-4-1.925c-1.485-0.872-1.527-2.236,0.048-2.903c3.301-1.397,6.699-2.574,10.095-3.732
		c1.291-0.44,2.686-0.579,4.034-0.853c1.972-0.4,2.83,0.116,3.061,2.137c0.201,1.763,1.025,2.725,2.657,3.484
		c6.977,3.248,13.61,2.634,19.968-1.503c0.626-0.408,1.036-1.389,1.224-2.18c0.42-1.766,0.809-2.255,2.619-1.984
		c4.938,0.736,9.795,1.829,14.236,4.224c0.724,0.391,1.759,1.276,1.688,1.805c-0.098,0.722-1.001,1.529-1.756,1.938
		c-4.304,2.333-9.024,3.467-13.806,4.141C132.329,209.81,127.343,210.092,123.885,210.415z M151.96,203.039
		c-4.952-2.934-10.161-4.131-15.513-4.836c-0.27-0.035-0.797,0.564-0.913,0.955c-0.323,1.081-0.428,2.166-1.547,2.893
		c-6.72,4.361-13.683,5.1-21.101,1.853c-2.164-0.947-3.497-2.201-3.616-4.6c-0.053-1.055-0.684-1.319-1.616-1.089
		c-3.158,0.78-6.348,1.454-9.459,2.391c-1.725,0.519-3.317,1.478-4.97,2.237c0.02,0.184,0.04,0.366,0.06,0.55
		c1.463,0.665,2.896,1.413,4.396,1.981c5.737,2.177,11.762,3.056,17.824,3.481c8.771,0.616,17.514,0.193,26.119-1.782
		C145.132,206.268,148.599,205.277,151.96,203.039z"/>
	<path fill="#FFFFFF" d="M126.807,224.679c-0.197,0-0.396-0.001-0.594,0
		c-2.817,0.021-2.934-0.095-2.925-2.898c0.007-2.301,0.452-2.705,2.788-2.76c1.678-0.04,3.353-0.18,5.028-0.287
		c1.373-0.089,2.034,0.538,2.001,1.916c-0.017,0.693,0.016,1.388-0.014,2.08c-0.041,0.985-0.568,1.558-1.559,1.641
		c-1.573,0.131-3.147,0.238-4.722,0.355C126.811,224.71,126.809,224.694,126.807,224.679z M124.808,223.564
		c2.28-0.13,4.634-0.264,7.005-0.397c0-1.17,0-2.178,0-3.231c-1.592,0.095-3.07,0.229-4.552,0.263
		c-2.979,0.066-2.979,0.044-2.734,3.046C124.529,223.283,124.587,223.317,124.808,223.564z"/>
	<path fill="#FFFFFF" d="M117.275,236.403c-1.324-0.127-2.665-0.172-3.967-0.422
		c-0.479-0.092-1.175-0.618-1.237-1.028c-0.178-1.159-0.22-2.387-0.013-3.531c0.074-0.407,1.013-0.915,1.568-0.931
		c1.871-0.053,3.748,0.092,5.623,0.17c1.711,0.071,2.219,0.583,2.24,2.205C121.545,236.991,121.487,236.302,117.275,236.403z
		 M120.328,234.976c0-0.478-0.056-0.972,0.011-1.45c0.181-1.296-0.306-1.766-1.638-1.688c-1.811,0.105-3.633,0.026-5.492,0.026
		c0,0.902,0,1.912,0,3.111C115.574,234.976,117.838,234.976,120.328,234.976z"/>
	<path fill="#FFFFFF" d="M127.541,236.303c-0.347,0-0.692-0.004-1.038,0
		c-3.103,0.035-4.001-1.114-3.121-4.18c0.14-0.489,0.751-0.983,1.261-1.19c0.612-0.25,1.348-0.238,2.032-0.264
		c1.086-0.04,2.175,0.005,3.261-0.025c2.988-0.085,4.021,1.26,3.067,4.229c-0.163,0.509-0.919,1.053-1.483,1.162
		c-1.298,0.252-2.646,0.246-3.973,0.346C127.545,236.354,127.543,236.328,127.541,236.303z M131.834,231.927
		c-2.555,0-4.896,0-7.246,0c0,1.235,0,2.193,0,2.994c2.488,0,4.865,0,7.246,0C131.834,233.692,131.834,232.729,131.834,231.927z"/>
	<path fill="#FFFFFF" d="M134.902,221.023c0-2.522,0.27-2.803,2.793-3.177
		c1.498-0.222,2.981-0.54,4.477-0.779c0.425-0.068,0.977-0.179,1.283,0.019c1.348,0.866,0.897,2.276,0.849,3.509
		c-0.034,0.867-0.146,1.796-1.325,2.008c-2.025,0.362-4.033,0.825-6.064,1.148C135.365,223.997,134.902,223.315,134.902,221.023z
		 M143.035,218.176c-2.348,0.43-4.588,0.839-6.863,1.256c0,1.084,0,2.097,0,3.181c0.92-0.119,1.748-0.214,2.571-0.336
		c0.583-0.086,1.163-0.194,1.738-0.317C143.364,221.346,143.363,221.344,143.035,218.176z"/>
	<path fill="#FFFFFF" d="M100.643,231.538c0-0.496-0.056-1,0.012-1.486
		c0.125-0.892,0.611-1.451,1.589-1.295c2.134,0.34,4.288,0.614,6.379,1.135c0.6,0.148,1.236,0.974,1.452,1.623
		c0.252,0.759,0.139,1.674,0.045,2.506c-0.123,1.089-0.697,1.667-1.92,1.446c-2.035-0.365-4.091-0.616-6.125-0.988
		C100.827,234.251,100.638,233.779,100.643,231.538z M101.89,233.209c1.277,0.242,2.385,0.477,3.502,0.658
		c1.142,0.187,2.292,0.321,3.564,0.495c0-0.948,0.073-1.692-0.031-2.411c-0.051-0.35-0.389-0.884-0.672-0.938
		c-2.101-0.396-4.22-0.693-6.362-1.025C101.89,231.089,101.89,232.111,101.89,233.209z"/>
	<path fill="#FFFFFF" d="M117.993,224.717c-1.522-0.113-3.048-0.205-4.567-0.351
		c-0.898-0.086-1.443-0.581-1.468-1.537c-0.003-0.099-0.005-0.198-0.009-0.297c-0.174-3.835,0.142-4.087,3.937-3.579
		c1.217,0.163,2.469,0.085,3.704,0.074c1.275-0.011,1.964,0.527,1.9,1.859c-0.004,0.099-0.002,0.198-0.001,0.297
		C121.517,224.721,121.517,224.721,117.993,224.717z M113.18,223.114c1.309,0.118,2.434,0.261,3.564,0.311
		c1.161,0.052,2.326,0.012,3.461,0.012c0-1.138,0-2.141,0-3.24c-1.256,0-2.389,0.036-3.519-0.01
		c-1.155-0.046-2.308-0.171-3.507-0.265C113.18,221.088,113.18,222.056,113.18,223.114z"/>
	<path  fill="#FFFFFF" d="M144.378,231.548c0.014,2.322-0.259,2.75-2.403,3.157
		c-1.74,0.331-3.505,0.549-5.266,0.747c-1.211,0.137-1.808-0.409-1.824-1.712c-0.041-3.378-0.077-3.381,3.271-4.057
		c1.013-0.204,2.034-0.363,3.042-0.584C143.959,228.493,144.363,228.796,144.378,231.548z M136.299,234.277
		c0.394-0.021,0.74-0.011,1.077-0.064c1.023-0.165,2.044-0.352,3.064-0.533c2.914-0.52,2.915-0.521,2.646-3.371
		c-0.008-0.082-0.105-0.154-0.226-0.322c-1.45,0.266-2.948,0.533-4.443,0.815c-2.52,0.475-2.52,0.478-2.301,3.075
		C136.125,233.967,136.194,234.052,136.299,234.277z"/>
	<path  fill="#FFFFFF" d="M100.64,219.765c0-0.396-0.021-0.794,0.004-1.189
		c0.078-1.236,0.759-1.816,1.955-1.596c1.981,0.366,3.95,0.794,5.93,1.164c1.104,0.206,1.57,0.856,1.632,1.946
		c0.195,3.46-0.108,3.804-3.5,3.382c-1.607-0.199-3.203-0.537-4.78-0.913C100.331,222.188,100.667,220.871,100.64,219.765z
		 M101.881,221.405c2.348,0.428,4.633,0.844,6.997,1.274c0-1.238,0-2.205,0-3.229c-2.348-0.444-4.632-0.878-6.997-1.326
		C101.881,219.22,101.881,220.196,101.881,221.405z"/>
	<path fill="#FFFFFF" d="M90.792,227.941c0-0.197,0-0.396,0-0.593
		c-0.011-2.533,0.604-2.861,2.895-1.677c1.264,0.654,2.661,1.063,3.883,1.779c0.565,0.33,1.057,1.081,1.218,1.731
		c0.208,0.839,0.09,1.77,0.04,2.656c-0.064,1.141-0.816,1.63-1.915,1.251c-1.256-0.434-2.514-0.873-3.734-1.395
		C90.827,230.691,90.779,230.574,90.792,227.941z M91.947,226.283c0,1.023-0.059,1.871,0.027,2.704
		c0.038,0.372,0.281,0.902,0.579,1.038c1.626,0.745,3.298,1.39,5.095,2.126c0-1.119,0.036-1.962-0.02-2.799
		c-0.019-0.277-0.202-0.687-0.423-0.788C95.515,227.79,93.796,227.076,91.947,226.283z"/>
	<path  fill="#FFFFFF" d="M154.223,228.257c0.408,1.754-0.563,2.833-2.448,3.408
		c-1.266,0.386-2.467,0.98-3.711,1.443c-1.069,0.397-1.993-0.203-2.05-1.336c-0.039-0.773,0.008-1.552,0.021-2.327
		c0.02-1.115,0.531-1.764,1.638-2.136c1.299-0.438,2.546-1.054,3.773-1.677c1.983-1.008,2.792-0.522,2.777,1.74
		C154.221,227.571,154.223,227.769,154.223,228.257z M152.869,226.341c-0.917,0.425-1.832,0.874-2.767,1.277
		c-2.859,1.236-2.863,1.229-2.835,4.219c0.001,0.067,0.107,0.135,0.182,0.223c0.862-0.31,1.75-0.585,2.603-0.941
		c3.03-1.267,3.026-1.277,2.935-4.532C152.985,226.545,152.949,226.506,152.869,226.341z"/>
	<path  fill="#FFFFFF" d="M154.211,216.404c0.011,2.541-0.018,2.592-2.449,3.521
		c-1.198,0.457-2.396,0.922-3.615,1.314c-1.11,0.357-1.869-0.062-1.989-1.254c-0.094-0.924-0.185-1.893,0.005-2.782
		c0.118-0.56,0.656-1.196,1.179-1.473c1.347-0.716,2.803-1.221,4.189-1.865c1.86-0.865,2.675-0.383,2.681,1.648
		C154.212,215.811,154.211,216.107,154.211,216.404z M152.955,214.585c-1.695,0.716-3.264,1.379-4.833,2.04
		c-0.09,0.038-0.226,0.031-0.274,0.095c-0.189,0.251-0.481,0.512-0.502,0.786c-0.064,0.866-0.023,1.741-0.023,2.796
		c0.986-0.355,1.766-0.619,2.533-0.915C153.017,218.169,153.016,218.165,152.955,214.585z"/>
	<path  fill="#FFFFFF" d="M98.835,218.475c0,0.564,0.039,1.015-0.008,1.457
		c-0.117,1.122-0.901,1.679-1.958,1.306c-1.629-0.575-3.286-1.127-4.811-1.919c-0.591-0.307-1.037-1.192-1.221-1.9
		c-0.206-0.789-0.057-1.676-0.032-2.52c0.04-1.368,0.822-1.911,2.04-1.392c1.634,0.696,3.245,1.446,4.878,2.145
		C99.132,216.254,98.796,217.488,98.835,218.475z M91.948,214.543c0,0.915-0.045,1.738,0.02,2.553
		c0.031,0.393,0.168,0.996,0.432,1.114c1.668,0.746,3.385,1.385,5.251,2.124c0-1.109,0.064-1.905-0.029-2.684
		c-0.042-0.354-0.317-0.838-0.618-0.976C95.408,215.94,93.769,215.298,91.948,214.543z"/>
	<path  fill="#FFFFFF" d="M90.36,263.414c3.009-0.146,4.117,2.489,3.051,4.186
		c-0.441,0.701-1.496,1.302-2.333,1.396c-0.958,0.106-2.592-0.129-2.851-0.703c-0.468-1.039-0.375-2.511-0.034-3.658
		C88.365,264.063,89.604,263.811,90.36,263.414z M89.152,264.625c0,1.378,0,2.287,0,3.642c1.222-0.42,2.28-0.668,3.195-1.174
		c0.238-0.132,0.214-1.467,0-1.563C91.422,265.108,90.382,264.942,89.152,264.625z"/>
	<path  fill="#FFFFFF" d="M130.771,271.396c-2.518-0.041-3.021-0.771-1.933-3.093
		c0.384-0.818,1.144-1.46,1.731-2.183c0.602,0.713,1.211,1.421,1.799,2.146c0.119,0.147,0.166,0.357,0.236,0.541
		C133.352,270.725,132.852,271.43,130.771,271.396z M131.879,270.113c-0.455-0.996-0.839-1.834-1.345-2.94
		c-0.437,1.14-0.757,1.975-1.127,2.94C130.286,270.113,130.916,270.113,131.879,270.113z"/>
	<path  fill="#FFFFFF" d="M76.931,271.399c-2.254,0.031-2.805-0.692-1.879-2.762
		c0.413-0.923,1.093-2.235,1.847-2.384c1.286-0.252,1.45,1.308,1.869,2.255C79.66,270.523,79.108,271.369,76.931,271.399z
		 M78.192,270.118c-0.459-1.033-0.814-1.831-1.295-2.914c-0.442,1.127-0.766,1.951-1.144,2.914
		C76.643,270.118,77.262,270.118,78.192,270.118z"/>
</g>
</svg>
